<?xml version="1.0" encoding="UTF-8" standalone="no"?>
<!-- Created with Inkscape (http://www.inkscape.org/) -->

<svg
   xmlns:dc="http://purl.org/dc/elements/1.1/"
   xmlns:cc="http://creativecommons.org/ns#"
   xmlns:rdf="http://www.w3.org/1999/02/22-rdf-syntax-ns#"
   xmlns:svg="http://www.w3.org/2000/svg"
   xmlns="http://www.w3.org/2000/svg"
   xmlns:sodipodi="http://sodipodi.sourceforge.net/DTD/sodipodi-0.dtd"
   xmlns:inkscape="http://www.inkscape.org/namespaces/inkscape"
   width="210mm"
   height="297mm"
   viewBox="0 0 210 297"
   version="1.1"
   id="svg8"
   sodipodi:docname="s1_before_img.svg"
   inkscape:version="0.92.2 (5c3e80d, 2017-08-06)">
  <defs
     id="defs2" />
  <sodipodi:namedview
     id="base"
     pagecolor="#ffffff"
     bordercolor="#666666"
     borderopacity="1.0"
     inkscape:pageopacity="0.0"
     inkscape:pageshadow="2"
     inkscape:zoom="0.35"
     inkscape:cx="-102.85714"
     inkscape:cy="560"
     inkscape:document-units="mm"
     inkscape:current-layer="layer1"
     showgrid="false"
     inkscape:window-width="1920"
     inkscape:window-height="1001"
     inkscape:window-x="-9"
     inkscape:window-y="-9"
     inkscape:window-maximized="1" />
  <metadata
     id="metadata5">
    <rdf:RDF>
      <cc:Work
         rdf:about="">
        <dc:format>image/svg+xml</dc:format>
        <dc:type
           rdf:resource="http://purl.org/dc/dcmitype/StillImage" />
        <dc:title></dc:title>
      </cc:Work>
    </rdf:RDF>
  </metadata>
  <g
     inkscape:label="Layer 1"
     inkscape:groupmode="layer"
     id="layer1">
    <path
       style="fill:#181818;fill-opacity:1;stroke-width:0.26458332"
       d="m -309.78929,163.2499 c 0,-5.0778 0.0988,-8.24751 0.26009,-8.34721 0.14304,-0.0884 0.67882,-0.0822 1.19062,0.0138 0.92259,0.17307 0.93054,0.18632 0.93054,1.54975 0,2.01791 0.36044,2.36059 2.61699,2.4881 1.25652,0.071 1.89191,0.009 1.914,-0.18816 0.0182,-0.16194 0.0628,-0.4135 0.0992,-0.55902 0.0364,-0.14552 0.081,-0.38365 0.0992,-0.52917 0.0194,-0.15526 1.05993,-0.26458 2.51831,-0.26458 2.69779,0 2.80643,-0.0616 2.80643,-1.59074 0,-0.58018 0.13706,-0.77317 0.59532,-0.83825 0.50802,-0.0721 0.60713,-0.26884 0.67595,-1.34132 l 0.0806,-1.25677 h -1.07283 c -1.31476,0 -1.43875,-0.54768 -0.27908,-1.23272 0.43656,-0.25788 0.79375,-0.55095 0.79375,-0.65127 0,-0.10032 0.5346,-0.49569 1.188,-0.87861 1.24214,-0.72795 1.40271,-1.05094 1.52035,-3.05824 l 0.0698,-1.19062 1.39243,-0.0801 c 1.19538,-0.0688 1.42038,-0.005 1.58991,0.45375 0.18572,0.50203 0.27613,0.47152 1.51799,-0.51241 0.72627,-0.57544 1.4991,-1.04737 1.71738,-1.04874 0.21828,-10e-4 0.75,0.3012 1.18161,0.67237 0.4316,0.37118 1.20551,0.9303 1.71979,1.24249 0.51428,0.31218 1.0114,0.67903 1.10471,0.81521 0.0933,0.13618 0.6418,0.55918 1.21885,0.94001 1.00166,0.66104 3.06979,2.15148 3.64546,2.62718 0.1493,0.12337 0.59579,0.43683 0.99218,0.69656 1.07107,0.70179 0.93006,1.20513 -0.3376,1.20513 h -1.05833 v 6.35 6.35 h 1.71979 1.71979 v -2.64584 -2.64583 h -0.79375 c -1.46316,0 -0.94243,-1.0066 1.27007,-2.45511 0.61774,-0.40443 1.32882,-0.90267 1.58019,-1.10721 2.32617,-1.89281 4.9121,-3.58143 5.48453,-3.58143 0.46976,0 2.48625,1.23404 2.97615,1.82133 0.28087,0.33671 0.33073,0.28914 0.33073,-0.31555 0,-0.67805 0.0631,-0.71203 1.32291,-0.71203 h 1.32292 v 1.5725 c 0,2.24512 0.28322,2.39625 4.49064,2.39625 h 3.31457 v -0.92604 c 0,-0.78395 -0.0913,-0.92604 -0.59532,-0.92604 -0.47431,0 -0.59424,-0.14789 -0.59006,-0.72761 0.004,-0.58929 0.25573,-0.87631 1.32292,-1.50989 1.31602,-0.78131 1.31767,-0.78403 1.31767,-2.18281 v -1.40053 h 1.47082 c 0.91317,0 1.40882,0.10032 1.3073,0.26459 -0.2606,0.42166 0.0669,0.31248 1.19063,-0.39688 0.57629,-0.3638 1.16327,-0.66146 1.30439,-0.66146 0.27626,0 1.59461,0.88527 4.11956,2.76631 0.87313,0.65045 2.03307,1.45499 2.57765,1.78785 0.7556,0.46185 0.99064,0.77758 0.99219,1.33282 0.002,0.57878 -0.11973,0.7276 -0.59327,0.72759 -0.50017,-2e-5 -0.59149,0.13741 -0.57137,0.85989 0.0222,0.79793 0.0957,0.86596 1.01964,0.94367 0.93658,0.0788 0.98892,0.12982 0.88177,0.8599 -0.11257,0.767 -0.0989,0.77614 1.16318,0.77614 h 1.27709 v -1.87112 -1.87112 l 1.42659,0.17824 c 0.78463,0.098 1.68348,0.0967 1.99744,-0.003 0.50268,-0.15954 0.56139,-0.34442 0.49164,-1.54826 -0.0737,-1.27181 -0.12992,-1.37292 -0.80682,-1.45081 -0.80156,-0.0922 -1.03283,-0.93316 -0.33073,-1.20259 0.21828,-0.0838 0.39688,-0.33462 0.39688,-0.55747 0,-0.27474 0.2582,-0.40518 0.80205,-0.40518 0.46886,0 0.86532,-0.16487 0.95435,-0.39687 0.10666,-0.27796 0.54022,-0.39688 1.44691,-0.39688 0.95177,0 1.2946,-0.10113 1.2946,-0.38187 0,-0.57622 1.0667,-1.20563 2.04325,-1.20563 0.83852,0 1.9255,0.74682 1.9255,1.32292 0,0.14552 0.65485,0.26458 1.45521,0.26458 1.11713,0 1.45521,0.0922 1.45521,0.39688 0,0.24449 0.24822,0.39687 0.64646,0.39687 0.69506,0 1.47021,0.86802 1.47021,1.64637 0,0.32699 -0.20438,0.4703 -0.67072,0.4703 h -0.67072 l 0.0754,2.71198 0.0754,2.71198 2.60679,0.0761 c 1.43373,0.0418 2.74341,-0.0369 2.91041,-0.175 0.20706,-0.1712 0.26155,-1.03695 0.17134,-2.72188 -0.12391,-2.31426 -0.17001,-2.4762 -0.7276,-2.55539 -1.25723,-0.17855 -0.61519,-1.45488 1.33958,-2.663 0.54426,-0.33636 1.13523,-0.75266 1.31327,-0.92509 0.17804,-0.17244 0.74043,-0.59596 1.24975,-0.94116 0.50932,-0.34519 1.04511,-0.7581 1.19063,-0.91757 0.5795,-0.63506 2.53548,-1.74467 3.07543,-1.74467 0.59884,0 2.8764,1.309 2.87722,1.65364 2.6e-4,0.10914 0.11953,0.19844 0.26506,0.19844 0.14552,0 0.26458,-0.23813 0.26458,-0.52917 0,-0.46502 0.17639,-0.52916 1.45521,-0.52916 h 1.45521 v 1.67508 c 0,1.47749 0.0718,1.71353 0.609,2.00101 0.33496,0.17926 1.19816,0.28868 1.91823,0.24315 l 1.30922,-0.0828 v -2.77812 -2.77813 l -0.7276,-0.0837 c -1.12297,-0.12922 -0.93904,-0.96718 0.39687,-1.80811 0.61847,-0.38931 1.5412,-1.02706 2.05053,-1.41722 2.89957,-2.22118 4.34465,-3.17325 4.81649,-3.17325 0.2919,0 1.0431,0.3458 1.66933,0.76844 1.0791,0.72828 1.14572,0.74126 1.27461,0.24837 0.11338,-0.43355 0.3265,-0.50637 1.28102,-0.43771 l 1.145,0.0824 0.0227,1.34401 c 0.0277,1.64221 0.1377,1.83188 1.45048,2.50161 0.78838,0.4022 1.04038,0.68968 1.04038,1.18684 0,0.52496 -0.13336,0.65608 -0.6673,0.65608 h -0.66729 l 0.072,4.94779 0.072,4.94779 1.19062,0.86325 c 0.65485,0.47478 1.39399,1.04125 1.64255,1.25882 0.24856,0.21756 0.96293,0.72788 1.5875,1.13403 0.62457,0.40615 1.27444,0.91716 1.44417,1.13558 0.21661,0.27876 1.0045,0.43655 2.64351,0.52941 2.23061,0.12638 2.35045,0.1648 2.68241,0.8599 0.19112,0.40018 0.46005,0.7276 0.59763,0.7276 0.13758,0 0.25015,0.23812 0.25015,0.52917 0,0.3428 -0.17639,0.52916 -0.50086,0.52916 -0.61996,0 -0.82205,0.4964 -0.82205,2.01922 v 1.18219 l 1.52136,-0.0794 1.52135,-0.0794 0.069,-11.17864 0.069,-11.17865 h -0.68273 c -0.55191,0 -0.66653,-0.11108 -0.59819,-0.5797 0.0594,-0.40747 0.59551,-0.84875 1.80434,-1.48527 0.94589,-0.49806 1.77933,-0.98778 1.85209,-1.08824 0.25945,-0.35827 2.40689,-1.34471 2.92736,-1.34471 0.52469,0 1.41435,0.43752 4.74555,2.33375 1.1994,0.68273 1.74538,1.15828 1.80434,1.57157 0.061,0.4276 -0.0495,0.5926 -0.39687,0.5926 -0.44179,0 -0.48142,0.29474 -0.48142,3.58016 v 3.58015 l 2.77812,-0.0744 2.77813,-0.0744 0.0716,-5.35781 c 0.0622,-4.64994 0.0185,-5.35782 -0.33073,-5.35782 -0.26368,0 -0.40075,-0.25078 -0.39768,-0.7276 0.004,-0.61255 0.21593,-0.82753 1.34062,-1.35952 0.73477,-0.34755 1.47681,-0.77045 1.64897,-0.93976 0.51833,-0.50976 2.68793,-1.47103 3.32011,-1.47103 0.32509,0 0.94448,0.18275 1.37643,0.40612 0.70605,0.36512 0.8011,0.36512 0.94121,0 0.20746,-0.54062 1.58215,-0.53111 1.79072,0.0124 0.0883,0.23018 0.16059,0.70836 0.16059,1.06262 0,0.47561 0.24225,0.75961 0.92605,1.08569 0.73441,0.35022 0.92604,0.59571 0.92604,1.18635 0,0.41949 -0.14444,0.74468 -0.33073,0.74459 -0.25868,-1.2e-4 -0.31462,1.67133 -0.25677,7.67291 l 0.074,7.67308 h 5.17046 c 4.12829,0 5.24664,0.0762 5.54844,0.37797 0.50353,0.50354 0.49071,1.97662 -0.0189,2.17218 -0.4623,0.1774 -0.56377,2.72905 -0.14001,3.52084 0.2335,0.43632 2.0264,1.33734 2.66109,1.33734 0.16989,0 0.23749,-5.25668 0.19308,-15.0151 l -0.0683,-15.01511 -0.59531,-0.0846 c -0.51253,-0.0728 -0.59531,-0.24362 -0.59531,-1.22846 0,-1.17781 0.26366,-1.46511 1.34455,-1.46511 0.33114,0 0.50753,-0.18391 0.50753,-0.52917 0,-0.50747 0.17639,-0.52917 4.30288,-0.52917 4.20848,0 4.30862,0.0131 4.56407,0.59532 0.23745,0.54122 0.44145,0.59531 2.24555,0.59531 h 1.98438 l 0.0798,1.23658 c 0.0721,1.11718 0.021,1.24491 -0.52916,1.32291 l -0.60899,0.0863 -0.0708,6.56978 -0.0708,6.56978 0.81922,-0.58334 c 0.45058,-0.32083 1.09159,-0.83645 1.42447,-1.14582 1.17959,-1.09624 2.76108,-2.28227 3.04326,-2.28227 0.26058,0 2.79497,1.94936 3.66324,2.81763 0.19846,0.19846 0.58967,0.4833 0.86937,0.63299 0.49267,0.26367 0.50853,0.12743 0.50853,-4.36736 0,-4.5541 -0.0104,-4.63951 -0.56224,-4.63951 -0.4886,0 -0.54058,-0.1083 -0.39687,-0.82683 0.0909,-0.45475 0.16536,-0.99053 0.16536,-1.19062 0,-0.21262 0.2776,-0.3638 0.66801,-0.3638 0.46446,0 0.74269,-0.19645 0.91312,-0.64472 0.1906,-0.50129 0.46872,-0.66316 1.25023,-0.7276 0.99774,-0.0823 1.00569,-0.0921 1.08568,-1.33825 0.0686,-1.06811 0.17425,-1.27886 0.70851,-1.41295 0.34536,-0.0867 0.87464,-0.0793 1.17619,0.0164 0.45701,0.14505 0.54826,0.39124 0.54826,1.4791 0,1.26781 0.0222,1.30509 0.77794,1.30509 0.736891,0 3.188521,-1.62169 5.057371,-3.34533 0.37177,-0.34288 0.87675,-0.62342 1.12219,-0.62342 0.43688,0 1.94623,1.0311 3.98702,2.72371 1.42157,1.17904 1.53027,1.23642 2.35079,1.24099 0.77796,0.004 0.83378,-0.11884 0.74287,-1.6391 -0.0512,-0.85675 0.0282,-1.00352 0.62447,-1.15316 0.37575,-0.0943 0.98084,-0.0968 1.34464,-0.005 0.59641,0.14969 0.66146,0.29753 0.66146,1.50329 0,1.131 0.0714,1.3236 0.46302,1.2486 0.40049,-0.0767 0.47312,-0.46767 0.53777,-2.89503 l 0.0747,-2.80634 -0.81453,-0.1629 -0.81453,-0.16291 0.0783,-1.79012 0.0783,-1.79011 h 0.92165 c 0.66712,0 0.94649,-0.12788 1.01159,-0.46302 0.0813,-0.41837 0.50607,-0.46302 4.4053,-0.46302 4.09285,0 4.3225,0.0273 4.45374,0.52916 0.10076,0.38532 0.3609,0.52917 0.9569,0.52917 h 0.81852 v 1.83368 c 0,1.70016 -0.0434,1.83984 -0.59531,1.91823 l -0.59531,0.0846 -0.0692,10.22727 c -0.0437,6.4492 0.0299,10.48809 0.19921,10.93331 0.32481,0.85432 1.15244,0.81366 1.27748,-0.0628 0.0783,-0.54861 0.22067,-0.5926 1.91823,-0.5926 h 1.83368 v -0.95912 c 0,-0.9331 0.0224,-0.95463 0.82683,-0.79375 0.45475,0.0909 1.28819,0.16537 1.85208,0.16537 1.01117,0 1.02526,0.0138 1.02526,1.00776 0,0.55427 0.17859,1.23888 0.39688,1.52135 0.39286,0.5084 0.40088,0.5084 0.79375,0 0.33921,-0.43897 0.39687,-2.23358 0.39687,-12.35169 V 122.7885 l 0.7276,-0.0837 c 0.72097,-0.083 0.72831,-0.10362 0.80445,-2.26653 0.0692,-1.96526 0.12852,-2.18281 0.59532,-2.18281 0.45081,0 0.51846,-0.18621 0.51846,-1.4269 0,-1.63508 0.13826,-1.7481 2.13831,-1.7481 h 1.30128 l 0.003,-2.05052 c 0.004,-3.17225 0.20742,-4.0349 0.94908,-4.0349 0.60678,0 0.61956,0.0549 0.69299,2.97656 l 0.0748,2.97656 1.52135,0.0794 1.52136,0.0793 v 1.41613 c 0,1.34237 0.0422,1.43084 0.81125,1.69892 l 0.81125,0.2828 -0.0616,2.05819 c -0.0613,2.04889 -0.0584,2.05856 0.64207,2.14172 l 0.70365,0.0835 0.068,17.36284 0.068,17.36285 0.92604,-0.79985 c 0.50932,-0.43992 1.30706,-1.02038 1.77276,-1.28992 l 0.84671,-0.49006 0.0195,-8.8374 c 0.0191,-8.65784 0.009,-8.84025 -0.51599,-8.97743 -0.85823,-0.22444 -0.60893,-0.9367 0.66333,-1.89516 1.14344,-0.86142 1.18244,-0.93776 1.18244,-2.3151 v -1.42431 h 1.19062 c 1.01423,0 1.19063,0.0784 1.19063,0.52917 0,0.71446 0.23347,0.66776 1.32291,-0.26458 1.20645,-1.03247 2.2283,-1.03631 3.42578,-0.0129 0.50173,0.42881 1.3054,0.99139 1.78593,1.25017 0.48054,0.25879 0.87371,0.5552 0.87371,0.65869 0,0.10349 0.77391,0.69698 1.71979,1.31886 1.73805,1.1427 2.27357,2.0768 1.19063,2.0768 -0.50642,0 -0.52917,0.17639 -0.52917,4.10105 0,2.25557 -0.006,4.19033 -0.0132,4.29947 -0.007,0.10915 0.32023,0.2801 0.72761,0.37991 2.30946,0.56581 2.93266,0.75558 3.65114,1.11179 0.43656,0.21644 1.80578,0.65377 3.04271,0.97185 1.23693,0.31807 2.30849,0.65356 2.38125,0.74551 0.1714,0.21662 1.52167,0.65143 3.83646,1.2354 1.65377,0.41722 1.94415,0.59081 2.71198,1.62124 1.05314,1.41335 1.08402,1.87701 0.13229,1.98652 -0.71649,0.0824 -0.72761,0.11204 -0.72761,1.93581 v 1.85208 l 1.38907,0.08 1.38906,0.08 v -4.51174 -4.51174 h -0.79375 c -0.62982,0 -0.79375,-0.11469 -0.79375,-0.55533 0,-0.70494 0.77361,-2.35509 1.1041,-2.35509 0.13751,0 0.18479,-0.10557 0.10504,-0.2346 -0.0797,-0.12903 0.014,-0.36648 0.2081,-0.52765 0.1942,-0.16117 0.56817,-0.76997 0.83103,-1.35289 0.26286,-0.58292 0.58594,-1.05986 0.71795,-1.05986 0.132,0 0.16642,-0.11906 0.0765,-0.26458 -0.0899,-0.14552 -0.0672,-0.265 0.0505,-0.26551 0.11772,-5.3e-4 0.57124,-0.67825 1.0078,-1.50609 0.43656,-0.82784 1.00211,-1.72039 1.25677,-1.98345 0.25466,-0.26306 0.46302,-0.61587 0.46302,-0.78404 0,-0.16817 0.27191,-0.67418 0.60428,-1.12448 1.0228,-1.3858 1.27694,-2.18508 0.93406,-2.93765 -0.23423,-0.51408 -0.22288,-0.81234 0.0504,-1.32292 0.4564,-0.85283 1.14308,-0.83894 1.7155,0.0347 0.37997,0.57992 0.40053,0.79502 0.12513,1.30963 -0.38299,0.71558 -0.0546,1.79865 0.96713,3.18934 0.33425,0.45498 0.5335,0.90147 0.44278,0.99219 -0.0907,0.0907 -0.0341,0.16494 0.12589,0.16494 0.15996,0 0.35811,0.21192 0.44032,0.47093 0.0822,0.25901 0.56972,1.12221 1.08333,1.91823 0.51364,0.79602 1.17941,1.95332 1.47947,2.57178 0.30009,0.61846 0.64600995,1.12448 0.76874995,1.12448 0.12274,0 0.30453,0.26789 0.40399,0.59531 0.0995,0.32742 0.46654,0.97679 0.81577,1.44304 0.34919,0.46625 0.70744005,1.21039 0.79610005,1.65364 0.15592,0.77961 0.12986,0.80593 -0.79793005,0.80593 h -0.95912 v 1.71475 c 0,1.65211 0.0266,1.7211 0.72761,1.88857 0.40018,0.0956 0.84667005,0.25821 0.99219005,0.36137 0.28294,0.20058 3.53158,0.98297 4.6302,1.11512 0.59474,0.0715 0.66146,-0.0139 0.66146,-0.84648 0,-0.90031 -0.0312,-0.9283 -1.12448,-1.0074 -1.54551,-0.11182 -1.52617,-0.82358 0.0474,-1.74577 0.64456,-0.37773 1.32916,-0.84346 1.52136,-1.03495 0.19219,-0.19149 0.67686,-0.56229 1.07704,-0.82399 0.67707,-0.44278 0.7276,-0.6022 0.7276,-2.29494 v -1.8191 l 1.38906,0.0636 c 1.29326,0.0592 1.39476,0.1128 1.47143,0.77708 l 0.0823,0.71348 1.24058,-0.92919 c 0.68231,-0.51106 1.45026,-1.10002 1.70659,-1.3088 0.49506,-0.40323 1.25343,-0.51277 1.25423,-0.18117 2.6e-4,0.10915 0.56581,0.55049 1.25677,0.98078 0.69096,0.43029 1.3267,0.883 1.41274,1.00602 0.14544,0.20794 1.25532,1.0071 3.79153,2.73007 0.57066,0.38767 1.26077,0.91282 1.53361,1.167 0.27281,0.25418 0.90725,0.6836 1.40983,0.95426 1.19478,0.64342 1.30207,1.69469 0.17296,1.69469 -1.06659,0 -1.37584,0.45307 -1.37584,2.01565 0,2.25588 -0.053,2.21768 3.07933,2.21768 2.38813,0 2.78003,0.0621 2.92153,0.46302 0.0899,0.25466 0.38195,0.70687 0.64908,1.00491 0.26712,0.29804 0.56009,0.91395 0.65103,1.36869 0.1519,0.75948 0.10377,0.83385 -0.59124,0.91332 l -0.7566,0.0865 -0.0757,2.57969 -0.0757,2.57968 h 1.59708 1.59708 v -5.82083 -5.82083 h -0.92604 c -0.8114,0 -0.92605,-0.0819 -0.92605,-0.66146 0,-0.3638 0.10711,-0.66146 0.23802,-0.66146 0.13092,0 0.87506,-0.4777 1.65365,-1.06156 1.40311,-1.05218 1.41679,-1.07616 1.54792,-2.71198 l 0.13229,-1.65042 h 1.19062 c 1.03328,0 1.2018,0.0787 1.27519,0.59531 0.0465,0.32743 0.13475,0.59532 0.19614,0.59532 0.0614,0 0.65754,-0.41672 1.32477,-0.92604 0.66725,-0.50933 1.50592,-0.92605 1.86369,-0.92605 0.61093,0 1.8967,0.64831 2.24266,1.1308 0.1537,0.21431 1.84854,1.4419 3.71552,2.69115 0.52835,0.35355 1.28577,0.94412 1.68315,1.31238 0.39735,0.36827 0.94731,0.74094 1.22214,0.82816 0.30943,0.0982 0.49966,0.40363 0.49966,0.80222 0,0.55919 -0.1215,0.64363 -0.92604,0.64363 h -0.92604 v 2.22732 c 0,1.22502 0.0723,2.41565 0.1606,2.64583 0.13147,0.3426 0.63534,0.41851 2.77813,0.41851 h 2.61752 v -2.64583 c 0,-2.17546 -0.0706,-2.64583 -0.39688,-2.64583 -0.48598,0 -0.54483,-1.33371 -0.0794,-1.79917 0.17462,-0.17462 0.65087,-0.3175 1.05833,-0.3175 0.55782,0 0.74083,-0.12731 0.74083,-0.51534 0,-0.43156 0.21564,-0.52834 1.32639,-0.59531 0.72951,-0.044 1.31868,-0.17707 1.30929,-0.29575 -0.0356,-0.44828 1.31736,-1.23943 2.1195,-1.23943 0.60322,0 1.02076,0.22048 1.50315,0.79375 0.55118,0.65504 0.86645,0.79375 1.80414,0.79375 0.91371,0 1.16334,0.10363 1.2746,0.52916 0.0958,0.36636 0.36092,0.52917 0.86159,0.52917 0.81878,0 1.42214,0.63984 1.4346,1.52135 0.006,0.44358 -0.14333,0.59522 -0.5869,0.59495 -0.57669,-2.6e-4 -0.59531,0.0804 -0.59531,2.57969 v 2.58005 l 1.19062,0.13229 1.19063,0.1323 0.0249,2.91041 0.0249,2.91042 h 0.90106 0.90109 l 0.0729,-4.16719 0.0729,-4.16719 h -0.66818 c -1.18639,0 -0.79084,-0.85757 0.73117,-1.58517 0.75833,-0.36252 1.46625,-0.77924 1.57316,-0.92604 0.10692,-0.1468 0.19622,-0.95152 0.19844,-1.78827 l 0.004,-1.52135 h 1.19063 1.19062 l 0.004,1.25677 c 0.003,0.69122 0.0915,1.12289 0.19844,0.95925 0.10692,-0.16364 0.84923,-0.57269 1.64959,-0.90901 0.80037,-0.33632 1.70903,-0.80381 2.01925,-1.03887 0.3102,-0.23506 1.02923,-0.58091 1.59782,-0.76856 0.95157,-0.31405 1.13821,-0.28758 2.34638,0.33284 0.72194,0.37071 1.84838,0.91712 2.50322,1.21423 0.65485,0.29712 1.36922,0.6598 1.5875,0.80596 0.36002,0.24106 1.30032,0.70819 3.96875,1.97161 1.83983,0.8711 2.11667,1.07124 2.11667,1.53019 0,0.28125 -0.19884,0.46642 -0.50086,0.46642 -0.66773,0 -0.82206,0.49471 -0.82206,2.63508 0,1.91502 0.16875,2.22506 1.37607,2.52808 0.58785,0.14754 0.72568,0.34685 0.79227,1.14575 l 0.0806,0.96713 1.65365,0.0788 1.65364,0.0788 v -0.90657 c 0,-0.96309 0.12433,-1.05334 2.41948,-1.75636 1.05961,-0.32456 1.275219,-0.76006 1.281059,-2.58784 0.003,-1.07384 -0.0321,-1.12448 -0.790119,-1.12448 -0.64693,0 -0.79375,-0.1102 -0.79375,-0.59577 0,-0.43613 0.31903,-0.76501 1.19062,-1.22739 0.654849,-0.3474 1.190629,-0.73172 1.190629,-0.85407 0,-0.12234 0.44648,-0.45261 0.99219,-0.73394 0.5457,-0.28133 1.23031,-0.73023 1.52135,-0.99756 0.97705,-0.89747 2.7618,-1.94127 3.31928,-1.94127 0.30387,0 0.96125,0.31178 1.46087,0.69286 0.7281,0.55534 0.90839,0.60785 0.90839,0.26458 0,-0.3312 0.26988,-0.42828 1.19063,-0.42828 h 1.19062 v 1.16322 c 0,1.00566 0.12986,1.27722 0.95861,2.00489 0.52724,0.46291 1.24161,0.97061 1.5875,1.12821 0.92303,0.42056 0.85762,1.46305 -0.0987,1.57309 -1.27212,0.14637 -0.78335,0.60992 0.72781,0.69027 2.04748,0.10886 2.50659,-0.28019 2.41292,-2.04476 -0.0858,-1.61779 0.25175,-2.13519 1.38957,-2.12962 1.07124,0.005 1.41446,0.242 1.52844,1.05429 l 0.0928,0.66145 0.53274,-0.53274 c 0.92503,-0.92503 2.17577,-1.71621 2.71309,-1.71621 0.4777,0 3.26313,1.84375 4.82396,3.1931 1.21756,1.0526 1.70133,1.15042 3.2258,0.65223 1.61597,-0.52809 1.79171,-0.72387 1.79724,-2.00235 0.003,-0.75631 0.15584,-1.02481 0.79779,-1.40402 0.6685,-0.39489 0.79375,-0.63354 0.79375,-1.51226 0,-0.93654 0.0677,-1.04337 0.66146,-1.04337 0.59328,0 0.66146,0.10711 0.66146,1.03913 0,0.79327 0.1565,1.16223 0.66146,1.55943 0.45191,0.35548 0.66146,0.78066 0.66146,1.34212 0,0.452 0.11906,0.82182 0.26458,0.82182 0.14552,0 0.26458,0.15755 0.26458,0.35012 0,0.20621 0.95158,0.66059 2.31511,1.10547 1.27331,0.41545 2.37463,0.80305 2.44739,0.86134 0.0728,0.0583 0.19183,1.43482 0.26459,3.05896 0.1138,2.53999 0.19703,2.96532 0.59531,3.04127 0.37965,0.0724 0.46302,-0.10576 0.46302,-0.98943 0,-0.89301 0.0886,-1.07773 0.51718,-1.07773 0.51086,0 0.65149,-0.38638 0.86667,-2.38125 0.064,-0.5934 0.20566,-0.66996 1.37673,-0.74409 2.00324,-0.1268 2.48389,0.0736 2.58054,1.07567 0.081,0.83944 0.11504,0.86089 1.49339,0.93976 1.49574,0.0856 2.2302,-0.25486 1.97641,-0.91618 -0.0844,-0.21995 -0.003,-1.03064 0.1828,-1.80154 0.33396,-1.39204 0.3443,-1.40275 1.51267,-1.56289 1.01069,-0.13853 1.31337,-0.0593 2.14805,0.56255 0.53438,0.39809 1.0668,0.87332 1.18316,1.05607 0.1541,0.24199 0.47067,0.0807 1.16507,-0.59375 0.56145,-0.54524 1.2192,-0.92602 1.59967,-0.92602 0.66635,0 2.14707,0.88941 2.53519,1.52278 0.17401,0.28399 0.34927,0.22924 0.84132,-0.2628 1.53278,-1.53279 2.68348,-1.57569 4.10609,-0.15308 0.83971,0.8397 0.84394,0.84069 1.27723,0.29775 0.86521,-1.08421 1.76696,-1.45551 3.06289,-1.26117 1.09551,0.16428 1.20827,0.24863 1.20827,0.90389 0,0.39749 0.23813,0.9382 0.52917,1.20159 0.62286,0.56367 0.69824,1.5983 0.13229,1.81547 -0.52673,0.20213 -0.54993,4.04614 -0.0286,4.73297 0.41423,0.54568 2.51685,0.64705 3.01836,0.14552 0.18897,-0.18896 0.3175,-1.09949 0.3175,-2.24896 0,-1.75507 -0.0483,-1.93146 -0.52916,-1.93146 -0.33224,0 -0.52462,-0.17231 -0.51694,-0.46302 0.0116,-0.44092 0.22015,-0.65239 1.906,-1.93306 0.57642,-0.43789 0.7276,-0.76866 0.7276,-1.59187 0,-1.02681 0.0119,-1.03913 1.00542,-1.03913 0.55298,0 1.13025,0.12483 1.28281,0.2774 0.19349,0.19347 0.46963,0.0748 0.91281,-0.39231 0.772,-0.81365 1.53829,-0.85819 2.36903,-0.1377 0.34316,0.29763 1.04597,0.79868 1.56183,1.11346 0.51583,0.31477 1.05696,0.71318 1.20248,0.88535 0.14552,0.17217 0.74083,0.61914 1.32292,0.99327 1.60792,1.03347 1.98437,1.38166 1.98437,1.83536 0,0.2294 -0.26659,0.45331 -0.59531,0.5 -0.56735,0.0806 -0.59886,0.21195 -0.67072,2.79652 l -0.0754,2.71198 h 0.93531 c 0.91601,0 0.9353,-0.022 0.9353,-1.06663 0,-0.70405 -0.13491,-1.11841 -0.39688,-1.21894 -0.69548,-0.26688 -0.47799,-1.33768 0.33073,-1.62828 0.40018,-0.14379 1.1339,-0.6298 1.63044,-1.08002 0.49657,-0.45021 1.13044,-0.8908 1.40859,-0.97907 0.56304,-0.17871 2.0542,0.34562 2.0542,0.7223 0,0.13277 0.41672,0.48727 0.92604,0.78778 l 0.92604,0.54638 v 4.07491 4.07491 H -55.789699 -309.7897 v -8.18647 z"
       id="path828"
       inkscape:connector-curvature="0" />
  </g>
</svg>
