<?xml version="1.0" encoding="UTF-8" standalone="no"?>
<!-- Created with Inkscape (http://www.inkscape.org/) -->

<svg
   xmlns:dc="http://purl.org/dc/elements/1.1/"
   xmlns:cc="http://creativecommons.org/ns#"
   xmlns:rdf="http://www.w3.org/1999/02/22-rdf-syntax-ns#"
   xmlns:svg="http://www.w3.org/2000/svg"
   xmlns="http://www.w3.org/2000/svg"
   xmlns:sodipodi="http://sodipodi.sourceforge.net/DTD/sodipodi-0.dtd"
   xmlns:inkscape="http://www.inkscape.org/namespaces/inkscape"
   width="210mm"
   height="297mm"
   viewBox="0 0 210 297"
   version="1.1"
   id="svg8"
   sodipodi:docname="1.svg"
   inkscape:version="0.92.2 (5c3e80d, 2017-08-06)">
  <defs
     id="defs2" />
  <sodipodi:namedview
     id="base"
     pagecolor="#ffffff"
     bordercolor="#666666"
     borderopacity="1.0"
     inkscape:pageopacity="0.0"
     inkscape:pageshadow="2"
     inkscape:zoom="0.35"
     inkscape:cx="-71.428571"
     inkscape:cy="560"
     inkscape:document-units="mm"
     inkscape:current-layer="layer1"
     showgrid="false"
     inkscape:window-width="1920"
     inkscape:window-height="1001"
     inkscape:window-x="-9"
     inkscape:window-y="-9"
     inkscape:window-maximized="1" />
  <metadata
     id="metadata5">
    <rdf:RDF>
      <cc:Work
         rdf:about="">
        <dc:format>image/svg+xml</dc:format>
        <dc:type
           rdf:resource="http://purl.org/dc/dcmitype/StillImage" />
      </cc:Work>
    </rdf:RDF>
  </metadata>
  <g
     inkscape:label="Layer 1"
     inkscape:groupmode="layer"
     id="layer1">
    <path
       id="path3338"
       d="M -282.15923,-11.428571 V -115.18304 h 99.97473 99.974675 v 103.754469 103.75446 h -99.974675 -99.97473 z m 89.15035,19.37829 c 4.17723,-2.93071 9.19744,-10.04731 8.23164,-11.66909 -1.44373,-2.42435 -9.35161,-1.22755 -14.14041,2.14005 -5.2375,3.68316 -7.30677,3.96575 -11.71516,1.59986005 -7.82901,-4.20158005 -8.28526,-17.40189005 -0.78981,-22.85040905 3.50958,-2.551116 7.34758,-2.074762 12.50497,1.552056 4.81712,3.387523 12.69915,4.560233 14.16022,2.106793 1.16352,-1.953824 -5.30003,-10.091073 -10.11409,-12.733064 -6.01703,-3.302181 -15.37863,-3.358187 -21.80335,-0.130439 -14.64479,7.357438 -15.65053,28.841823 -1.86117,39.757123 6.53109,5.16983 18.33252,5.27483 25.52716,0.22711 z m -64.94593,0.28044 c 2.06024,-3.00275 2.76353,-3.27646 8.4189,-3.27646 5.6554,0 6.3587,0.27372 8.41893,3.27646 1.91108,2.78532 2.93786,3.27646 6.84992,3.27646 2.53104,0 4.8808,-0.46832 5.22162,-1.0407 0.34087,-0.57238 -3.01748,-10.64747995 -7.46299,-22.38912 l -8.08277,-21.348414 h -4.93199 -4.93199 l -8.11943,21.308214 c -4.46568,11.71952005 -7.82976,21.79462 -7.47573,22.38913 0.354,0.59449 2.71457,1.0809 5.24558,1.0809 3.91205,0 4.93887,-0.49114 6.84995,-3.27646 z m 4.96242,-13.92494 c -0.23308,-0.45051 0.387,-3.52219 1.37762,-6.82595 l 1.80127,-6.00683 1.64591,3.88301 c 0.90522,2.13565 1.96617,5.20733 2.35759,6.82595 0.67274,2.7818 0.5072,2.94295 -3.02354,2.94295 -2.05439,0 -3.92585,-0.36862 -4.15885,-0.81912 z m 106.96301,13.91255 c 4.49141,-3.1553 9.61082,-10.25418 8.60858,-11.93716 -1.44373,-2.42434 -9.3516,-1.22754 -14.14037,2.14006 -5.23754,3.68316 -7.30676,3.96575 -11.7152,1.59986005 -9.76124,-5.23855005 -7.45671,-22.35920505 3.2481,-24.13073305 2.89435,-0.478984 4.58301,0.07521 8.36234,2.744389 4.91632,3.472154 12.78342,4.682584 14.26494,2.194784 1.16949,-1.963828 -5.3083,-10.093552 -10.21165,-12.815792 -6.36606,-3.53428 -17.66948,-3.093235 -23.37054,0.911889 -7.65817,5.380002 -11.44804,14.847813 -9.73559,24.321183 1.05573,5.84020005 6.46191,13.40359 11.4649,16.03966 6.30918,3.32431 17.71903,2.79955 23.22449,-1.06814 z m 21.94062,0.28544 c 1.27835,-2.77638 1.91521,-3.02774 8.42506,-3.32514 6.93109,-0.31665 7.06875,-0.26839 8.72651,3.05853 1.59563,3.2023 1.97233,3.36298 7.154735,3.05211 4.20659,-0.25234 5.39334,-0.70665 5.13671,-1.96638 -0.18375,-0.90103 -3.93078,-11.099 -8.327125,-22.66216 l -7.99335,-21.02393 h -4.4751 -4.47511 l -8.50819,22.22221 c -4.6795,12.22222005 -8.50819,22.54306 -8.50819,22.9352 0,0.39215 2.57878,0.71298 5.73059,0.71298 5.21474,0 5.85507,-0.27037 7.11346,-3.00342 z m 5.04618,-14.57596 c 0,-0.65841 0.78089,-3.97582 1.73536,-7.37203 l 1.7354,-6.17492 1.9668,5.98717 c 1.08171,3.29295 1.73636,6.61036 1.45475,7.37203 -0.62565,1.69196 -6.89231,1.86267 -6.89231,0.18773 z"
       style="fill:#cccccc;fill-opacity:1;stroke-width:1.07207417"
       inkscape:connector-curvature="0" />
    <g
       transform="matrix(0.26458333,0,0,0.26458333,-356.31614,184.1844)"
       id="g3338">
      <path
         id="path3344-8"
         d="M 38.135229,0.21375135 A 38.201744,37.604843 0 0 0 -0.0659428,37.817267 38.201744,37.604843 0 0 0 38.135229,75.422736 38.201744,37.604843 0 0 0 76.336401,37.817267 38.201744,37.604843 0 0 0 38.135229,0.21375135 Z M 60.992651,19.635626 c 0.501794,0 -0.19828,0.874874 -1.556641,1.94336 -1.35836,1.068487 -5.789954,6.805987 -9.847656,12.75 -4.057702,5.944014 -11.088531,14.51914 -15.623047,19.05664 -8.727163,8.732907 -11.951963,10.357174 -10.880859,5.480469 0.827337,-3.766839 -0.971618,-5.87332 -6.949219,-8.136719 -2.75,-1.041278 -4.905389,-2.21425 -4.789062,-2.607421 0.116325,-0.393172 4.166324,-2.03826 8.999999,-3.654297 10.295924,-3.442225 19.787818,-8.822741 28.525391,-16.173829 7.241402,-6.092331 10.832337,-8.658203 12.121094,-8.658203 z"
         style="fill:#f39f18;fill-opacity:1"
         inkscape:connector-curvature="0" />
    </g>
    <path
       id="path3338-8"
       d="m -361.78316,336.69409 c -1.29219,-0.86886 -4.88478,-2.50168 -6.94056,-3.15445 l -1.91348,-0.60759 -0.5752,-1.73539 c -0.31636,-0.95446 -1.2018,-3.25329 -1.96764,-5.10851 l -1.39245,-3.37312 1.33282,-2.97688 c 0.73306,-1.63728 1.64007,-3.9525 2.01558,-5.14492 l 0.68276,-2.16804 2.37458,-0.8292 c 1.30601,-0.45606 3.54449,-1.41629 4.97439,-2.13385 l 2.59983,-1.30465 2.57969,1.29381 c 1.41882,0.71159 3.53218,1.62382 4.69635,2.02716 1.16417,0.40335 2.25132,0.86402 2.41589,1.02371 0.16457,0.15969 0.62679,1.30238 1.02714,2.53931 0.40036,1.23693 1.2993,3.46952 1.99765,4.96131 l 1.26973,2.71235 -1.16457,2.4921 c -0.64051,1.37065 -1.55207,3.68343 -2.0257,5.13951 l -0.86115,2.64741 -2.15067,0.69961 c -1.18288,0.38478 -3.49109,1.34605 -5.12937,2.13616 -1.63828,0.7901 -2.99516,1.42785 -3.01528,1.41721 -0.0201,-0.0106 -0.39377,-0.25951 -0.83034,-0.55305 z m 3.87902,-1.67921 c 1.35904,-0.6563 3.4122,-1.52275 4.56258,-1.92544 l 2.0916,-0.73216 0.70285,-2.10946 c 0.38656,-1.16021 1.25401,-3.33477 1.92766,-4.83238 l 1.22482,-2.72291 -1.29344,-2.86672 c -1.3106,-2.90477 -2.37946,-5.7993 -2.37946,-6.4437 0,-0.20359 -0.77439,-0.60255 -1.82864,-0.94209 -1.00575,-0.32392 -3.15,-1.23746 -4.765,-2.03007 l -2.93637,-1.44112 -1.67275,0.91946 c -0.92001,0.5057 -3.01589,1.42727 -4.65751,2.04794 l -2.98476,1.12849 -1.0007,2.77432 c -0.55039,1.52587 -1.41985,3.6815 -1.93214,4.79027 l -0.93144,2.01596 1.71098,4.33404 c 0.94104,2.38373 1.80907,4.57217 1.92896,4.86321 0.14992,0.36397 0.91986,0.76508 2.46634,1.28487 1.23659,0.41564 3.24574,1.27041 4.46476,1.89949 1.21901,0.62908 2.35461,1.15221 2.52354,1.16252 0.16893,0.0103 1.41909,-0.51822 2.77812,-1.17452 z m -5.06978,-1.05226 c -1.23685,-0.6197 -3.111,-1.4031 -4.16478,-1.7409 -1.86281,-0.59715 -1.92814,-0.64762 -2.35547,-1.81961 -0.24173,-0.66298 -1.03134,-2.66808 -1.75468,-4.45577 l -1.31516,-3.25035 0.93199,-2.04132 c 0.51259,-1.12272 1.30877,-3.12165 1.76929,-4.44207 l 0.83729,-2.40075 1.78911,-0.57622 c 0.98401,-0.31692 2.88662,-1.1104 4.22803,-1.76327 l 2.43893,-1.18706 2.30352,1.15283 c 1.26694,0.63405 3.07743,1.4258 4.02332,1.75944 0.94588,0.33364 1.8199,0.69342 1.94225,0.7995 0.12236,0.10609 0.56606,1.21536 0.98601,2.46505 0.41994,1.24969 1.19243,3.12385 1.71664,4.16479 l 0.95311,1.89263 -0.95005,2.07838 c -0.52253,1.14311 -1.29502,3.10495 -1.71665,4.35965 -0.42162,1.2547 -0.8667,2.36855 -0.98906,2.47523 -0.12235,0.10667 -1.17496,0.52447 -2.33913,0.92844 -1.16416,0.40397 -3.0097,1.18306 -4.10118,1.7313 l -1.98451,0.99681 z m 2.80921,-1.92166 c 0.10297,-0.5457 0.23735,-0.84336 0.29862,-0.66146 0.19201,0.57004 0.59647,0.36045 0.59647,-0.30909 0,-0.3519 0.0723,-0.82815 0.1606,-1.05833 0.23007,-0.59956 0.89774,-0.51726 0.89774,0.11065 0,0.38806 0.17639,0.52917 0.66146,0.52917 0.83288,0 0.89193,-0.72408 0.0686,-0.8415 -0.76645,-0.1093 -1.18413,-1.01599 -1.44556,-3.13797 -0.18899,-1.53393 -0.27597,-1.71831 -0.84877,-1.79924 -0.48759,-0.0689 -0.55003,-0.14495 -0.26459,-0.32227 0.20549,-0.12765 0.37362,-0.56333 0.37362,-0.96816 0,-0.56189 0.14087,-0.75608 0.59532,-0.82062 1.26796,-0.18008 0.33447,-1.37066 -1.07469,-1.37066 -0.872,0 -1.27922,0.56135 -1.43964,1.98452 -0.0988,0.87688 -0.0423,1.19048 0.2147,1.19048 0.21353,0 0.12423,0.2093 -0.23017,0.53947 -0.31848,0.29671 -0.57906,0.82834 -0.57906,1.18138 0,0.83039 -0.77482,3.12268 -1.13162,3.3479 -0.15158,0.0957 -0.43522,0.11271 -0.63032,0.0378 -0.34944,-0.13409 -0.52074,0.72462 -0.20711,1.03825 0.30271,0.30271 1.2045,-0.13087 1.05928,-0.5093 -0.10493,-0.27344 0.021,-0.35662 0.44806,-0.29596 0.45836,0.0651 0.6133,0.2856 0.6785,0.96554 0.0589,0.61473 0.1936,0.8393 0.44531,0.7427 0.23623,-0.0907 0.41988,0.13041 0.53184,0.6402 0.23502,1.07 0.59695,0.97591 0.82138,-0.21354 z m -1.17595,-2.20808 c -0.28978,-0.46401 -0.23073,-0.5039 0.74588,-0.5039 0.63167,0 1.06058,0.12483 1.06058,0.30868 0,0.16978 -0.0798,0.22889 -0.17732,0.13136 -0.0975,-0.0975 -0.43317,-0.01 -0.74588,0.19523 -0.50605,0.33158 -0.60316,0.31713 -0.88326,-0.13137 z m -4.43951,-2.68977 c 0.15077,-0.23902 0.19192,-0.51679 0.0914,-0.61727 -0.25171,-0.25171 -0.98922,0.3993 -0.98922,0.87321 0,0.47892 0.52945,0.32799 0.89778,-0.25594 z m 11.14793,0.3222 c 0.18353,-0.29697 -0.31861,-1.04675 -0.70102,-1.04675 -0.2711,0 -0.31432,0.88801 -0.0558,1.14653 0.25651,0.25651 0.56146,0.21631 0.75681,-0.0998 z m -12.06181,-0.83838 c 0.34004,-0.60304 0.33124,-0.72478 -0.0823,-1.13836 -0.37956,-0.37955 -0.58087,-0.40945 -1.1158,-0.16572 -0.67326,0.30676 -1.09663,0.9897 -0.79841,1.28792 0.0932,0.0932 0.31028,0.0285 0.48248,-0.1437 0.44932,-0.44933 0.86282,-0.38732 0.48146,0.0722 -0.35931,0.43294 -0.12484,1.01969 0.34535,0.86424 0.16857,-0.0557 0.47783,-0.40519 0.68726,-0.77657 z m 13.29449,0.204 c -0.0643,-0.3552 0.0402,-0.41964 0.46302,-0.28545 0.45169,0.14337 0.54609,0.0597 0.54609,-0.48391 0,-0.36148 0.14883,-0.71922 0.33073,-0.79496 0.23458,-0.0977 0.18142,-0.25793 -0.18286,-0.55122 -0.50353,-0.40539 -0.50223,-0.41349 0.0661,-0.41349 0.681,0 0.77364,-0.47137 0.1404,-0.71436 -0.376,-0.14429 -0.35694,-0.19907 0.13229,-0.38005 0.6734,-0.24911 0.76317,-0.75768 0.13375,-0.75768 -0.40746,0 -0.40746,-0.0336 0,-0.48385 0.62411,-0.68963 0.54273,-0.92274 -0.25245,-0.72317 l -0.69033,0.17326 0.58445,-0.73989 0.58445,-0.73989 -0.55508,-0.0845 c -0.44515,-0.0677 -0.50462,-0.17874 -0.3003,-0.56052 0.2969,-0.55477 0.11434,-0.8341 -0.41291,-0.63177 -0.29068,0.11155 -0.33318,-0.0483 -0.19832,-0.74584 0.16789,-0.86832 0.16015,-0.87764 -0.35259,-0.42478 -0.72896,0.64382 -0.77448,0.60277 -0.66022,-0.59531 0.109,-1.14303 -0.0897,-1.32647 -0.64468,-0.59532 -0.3189,0.4201 -0.35226,0.39396 -0.3599,-0.28198 -0.005,-0.40974 -0.14617,-1.0024 -0.31455,-1.31701 -0.29919,-0.55905 -0.31076,-0.56016 -0.51057,-0.0487 -0.11244,0.28779 -0.21266,1.23764 -0.22271,2.11076 -0.0152,1.32183 0.091,1.71454 0.63457,2.3466 0.4027,0.46825 0.80807,0.69952 1.05801,0.60362 0.45222,-0.17354 0.47438,-0.13116 0.24457,0.46773 -0.20348,0.53027 -0.8663,0.54371 -1.06664,0.0216 -0.0838,-0.21828 -0.30987,-0.39688 -0.50246,-0.39688 -0.19259,0 -0.38821,-0.24284 -0.43471,-0.53965 -0.0465,-0.2968 -0.20361,-0.5295 -0.34913,-0.5171 -0.41562,0.0354 -0.18229,2.46294 0.26055,2.71077 0.21187,0.11857 0.5149,0.69714 0.67338,1.28571 0.26329,0.97776 0.22862,1.14817 -0.40165,1.9745 -0.51144,0.67053 -0.96375,0.94819 -1.74921,1.07379 -0.88581,0.14165 -1.04632,0.26105 -0.97957,0.72871 0.16635,1.16547 2.0423,0.54378 3.7325,-1.23695 0.63266,-0.66655 0.72681,-0.95457 0.63772,-1.95086 -0.0575,-0.64287 0.0135,-1.24179 0.15772,-1.33094 0.14982,-0.0926 0.0466,-0.32512 -0.24084,-0.54234 -0.49076,-0.37094 -0.49012,-0.37799 0.0261,-0.28759 0.42957,0.0752 0.55846,0.36605 0.68482,1.54512 0.0856,0.79885 0.0366,1.75011 -0.10887,2.11391 -0.14549,0.36381 -0.2453,0.75076 -0.2218,0.8599 0.0235,0.10914 -0.13587,0.19844 -0.35415,0.19844 -0.50784,0 -0.50146,0.26211 0.0247,1.01328 0.47344,0.67592 1.0777,0.63032 0.95058,-0.0717 z m -9.17735,-0.29128 c 0,-0.35431 -0.2638,-0.55022 -0.92223,-0.68488 -0.53648,-0.10973 -1.2372,-0.54113 -1.67522,-1.03136 -0.83027,-0.92923 -0.81822,-1.31935 0.10325,-3.34209 0.54423,-1.19465 0.68237,-2.73567 0.24524,-2.73567 -0.14552,0 -0.26458,0.17859 -0.26458,0.39687 0,0.21828 -0.17859,0.39688 -0.39687,0.39688 -0.21828,0 -0.39688,0.16585 -0.39688,0.36857 0,0.39752 -0.76788,0.80382 -1.02785,0.54385 -0.0871,-0.0871 0.0515,-0.27581 0.30802,-0.41936 0.25651,-0.14355 0.39236,-0.38076 0.3019,-0.52713 -0.0905,-0.14637 0.0746,-0.32866 0.36685,-0.40508 0.29223,-0.0764 0.60024,-0.39583 0.68446,-0.70979 0.26794,-0.99877 0.17362,-3.83873 -0.13379,-4.02872 -0.4475,-0.27657 -0.75445,0.41566 -0.77072,1.73807 l -0.0146,1.19063 -0.39473,-0.72761 c -0.56482,-1.04112 -0.73093,-0.90234 -0.57507,0.48046 l 0.13617,1.20806 -0.63092,-0.59272 -0.63093,-0.59272 v 0.70758 c 0,0.45257 -0.14303,0.70757 -0.39687,0.70757 -0.46942,0 -0.48878,0.12766 -0.12298,0.81115 0.23131,0.43222 0.18546,0.51177 -0.29502,0.51177 -0.54601,0 -0.55147,0.0266 -0.1355,0.66146 0.40771,0.62224 0.40478,0.66146 -0.0494,0.66146 -0.75931,0 -0.73086,1.80966 0.0333,2.11792 0.42974,0.17335 0.45976,0.2339 0.12223,0.24656 -0.7108,0.0266 -0.83422,0.52932 -0.18859,0.76816 0.49949,0.18477 0.5221,0.24327 0.14929,0.38633 -0.65535,0.25148 -0.53041,0.71436 0.19281,0.71436 0.59739,0 2.1823,-1.03083 1.61366,-1.04953 -0.38041,-0.0125 -0.0746,-2.98422 0.32045,-3.1144 0.23283,-0.0767 0.25563,0.11049 0.0857,0.70317 -0.44685,1.55809 -0.0881,2.70254 1.22498,3.90811 1.51557,1.39144 3.13457,1.76956 3.13457,0.73207 z m -0.28622,-1.07543 c 0.61479,-0.23592 0.51069,-0.61121 -0.24973,-0.90032 -0.88839,-0.33777 -1.08933,-0.95845 -0.51554,-1.59248 0.37156,-0.41057 0.41821,-0.69028 0.22657,-1.35848 -0.259,-0.90307 -0.89487,-1.34468 -0.89487,-0.62148 0,0.2408 -0.17859,0.61641 -0.39687,0.83469 -0.24262,0.24262 -0.39688,0.89088 -0.39688,1.66785 0,1.17057 0.0679,1.30445 0.8599,1.69487 1.02222,0.50392 0.85796,0.47084 1.36742,0.27535 z m 5.71548,-0.23902 c 1.36222,-0.70443 1.7041,-1.99618 0.78845,-2.97902 -0.29104,-0.31239 -0.52917,-0.80407 -0.52917,-1.0926 0,-0.98022 -0.50202,-0.84011 -0.8225,0.22954 -0.27442,0.91593 -0.25768,1.13317 0.11938,1.54982 0.65656,0.72549 0.53195,1.28463 -0.35521,1.59389 -0.77507,0.2702 -0.97312,0.56584 -0.61736,0.9216 0.26456,0.26456 0.56456,0.21728 1.41641,-0.22323 z"
       style="fill:#f39f18;fill-opacity:1;stroke-width:0.26458332"
       inkscape:connector-curvature="0" />
    <path
       id="path3338-0"
       d="m 49.927737,237.3531 v -4.95374 h 55.194783 55.1947 v 4.95374 4.95375 h -55.1947 -55.194783 z m 0,-29.72238 v -20.80563 h 55.194783 55.1947 v 20.80563 20.8057 H 105.12252 49.927737 Z M 87.46018,181.19755 c 0,-0.91547 1.986969,-8.63734 4.415606,-17.15964 2.428554,-8.5223 4.415523,-19.29478 4.415523,-23.93877 0,-7.64668 -1.378328,-9.79163 -14.6027,-22.72502 C 73.657124,109.5194 64.756904,98.526218 61.910295,92.944737 56.285752,81.916357 51.039044,55.734746 48.659054,26.819537 L 47.15047,8.4907771 h 56.91982 56.91991 l -1.4309,22.4848379 c -3.0392,47.758771 -9.99726,67.527761 -30.8994,87.790505 -10.50802,10.18653 -12.49849,13.28358 -12.49849,19.44711 0,6.44572 6.47425,32.86781 10.17399,41.52087 1.15804,2.70851 -1.35871,3.12798 -18.76889,3.12798 -11.058497,0 -20.10633,-0.74906 -20.10633,-1.66453 z m 70.92715,-68.7726 c -5.51673,-4.16627 -6.90124,-6.73368 -6.90124,-12.797385 0,-6.370157 1.38109,-8.64355 8.62019,-14.189682 7.89805,-6.050897 9.28523,-8.712974 16.55837,-31.777919 4.36604,-13.845557 7.93828,-26.497801 7.93828,-28.116047 0,-2.199325 -2.36922,-2.847582 -9.38311,-2.567115 -9.07287,0.362473 -9.40597,0.161765 -10.07495,-6.064676 l -0.69175,-6.439882 h 20.15874 c 18.24169,0 20.04141,0.331768 18.92485,3.489249 -0.6784,1.919083 -5.74821,18.073232 -11.26578,35.898125 -12.40461,40.074499 -14.9822,45.81677 -20.56585,45.81677 -5.55921,0 -7.6484,4.955612 -3.4177,8.106882 3.68455,2.74446 3.32023,11.99447 -0.51652,13.12338 -1.36498,0.40142 -5.58733,-1.61517 -9.38303,-4.4817 z m -118.114732,1.6664 C 38.07944,112.12291 38.6653,103.96024 41.096191,102.6116 45.322212,100.26751 43.46867,93.991639 38.357141,93.337391 35.636366,92.989148 32.230683,90.474981 30.789024,87.750444 26.70152,80.025732 5.9578424,11.804781 7.163942,10.053304 7.7555599,9.1938543 16.626074,8.4907771 26.875835,8.4907771 h 18.635962 v 5.9444769 c 0,5.712614 -0.382174,5.944476 -9.804754,5.944476 -5.392648,0 -10.219133,0.668777 -10.725638,1.486063 -0.506505,0.817361 2.931889,13.454102 7.640881,28.081672 7.7794,24.165544 9.364503,27.260716 17.348925,33.876367 9.147549,7.579273 11.1089,14.164293 6.514056,21.869838 -2.572495,4.31402 -14.106542,10.28823 -16.213086,8.39768 z"
       style="fill:#cccccc;fill-opacity:1;stroke-width:2.0915823"
       inkscape:connector-curvature="0" />
  </g>
</svg>
