<?xml version="1.0" encoding="UTF-8" standalone="no"?>
<svg
   xmlns:dc="http://purl.org/dc/elements/1.1/"
   xmlns:cc="http://creativecommons.org/ns#"
   xmlns:rdf="http://www.w3.org/1999/02/22-rdf-syntax-ns#"
   xmlns:svg="http://www.w3.org/2000/svg"
   xmlns="http://www.w3.org/2000/svg"
   id="svg8"
   version="1.1"
   viewBox="0 0 210 297"
   height="297mm"
   width="210mm">
  <defs
     id="defs2" />
  <metadata
     id="metadata5">
    <rdf:RDF>
      <cc:Work
         rdf:about="">
        <dc:format>image/svg+xml</dc:format>
        <dc:type
           rdf:resource="http://purl.org/dc/dcmitype/StillImage" />
        <dc:title></dc:title>
      </cc:Work>
    </rdf:RDF>
  </metadata>
  <g
     id="layer1">
    <path
       style="fill:#cccccc;fill-opacity:1;stroke-width:1.07207417"
       d="m -289.71875,-18.23214 v -103.75447 h 99.97472 99.974681 V -18.23214 85.52232 h -99.974681 -99.97472 z m 89.15035,19.37829 c 4.17723,-2.93071 9.19743,-10.04731 8.23163,-11.66909 -1.44373,-2.42435 -9.3516,-1.22755 -14.1404,2.14005 -5.2375,3.68316 -7.30677,3.96575 -11.71516,1.59986 -7.82901,-4.20158 -8.28526,-17.40189 -0.78981,-22.850411 3.50958,-2.551116 7.34758,-2.074762 12.50497,1.552056 4.81712,3.387525 12.69914,4.560235 14.16021,2.106795 1.16352,-1.953826 -5.30002,-10.091075 -10.11408,-12.733066 -6.01703,-3.302181 -15.37863,-3.358187 -21.80335,-0.130439 -14.64479,7.357438 -15.65053,28.841825 -1.86117,39.757125 6.53109,5.16983 18.33252,5.27483 25.52716,0.22711 z m -64.94593,0.28044 c 2.06024,-3.00275 2.76353,-3.27646 8.4189,-3.27646 5.6554,0 6.3587,0.27372 8.41893,3.27646 1.91108,2.78532 2.93786,3.27646 6.84992,3.27646 2.53104,0 4.8808,-0.46832 5.22162,-1.0407 0.34087,-0.57238 -3.01748,-10.64748 -7.46299,-22.38912 l -8.08277,-21.348416 h -4.93199 -4.93199 l -8.11943,21.308216 c -4.46568,11.71952 -7.82976,21.79462 -7.47573,22.38913 0.354,0.59449 2.71457,1.0809 5.24558,1.0809 3.91205,0 4.93887,-0.49114 6.84995,-3.27646 z m 4.96242,-13.92494 c -0.23308,-0.45051 0.387,-3.52219 1.37762,-6.82595 l 1.80127,-6.00683 1.64591,3.88301 c 0.90522,2.13565 1.96617,5.20733 2.35759,6.82595 0.67274,2.7818 0.5072,2.94295 -3.02354,2.94295 -2.05439,0 -3.92585,-0.36862 -4.15885,-0.81912 z m 106.963,13.91255 c 4.49141,-3.1553 9.61082,-10.25418 8.60858,-11.93716 -1.44373,-2.42434 -9.3516,-1.22754 -14.14037,2.14006 -5.23754,3.68316 -7.30676,3.96575 -11.7152,1.59986 -9.76124,-5.23855 -7.45671,-22.359207 3.2481,-24.130735 2.89435,-0.478984 4.58301,0.07521 8.36234,2.744389 4.91632,3.472156 12.78342,4.682586 14.26494,2.194786 1.16949,-1.96383 -5.3083,-10.093554 -10.21165,-12.815794 -6.36606,-3.53428 -17.66948,-3.093235 -23.37054,0.911889 -7.65817,5.380002 -11.44804,14.847815 -9.73559,24.321185 1.05573,5.8402 6.46191,13.40359 11.4649,16.03966 6.30918,3.32431 17.71903,2.79955 23.22449,-1.06814 z m 21.94062,0.28544 c 1.27835,-2.77638 1.91521,-3.02774 8.42506,-3.32514 6.93109,-0.31665 7.06875,-0.26839 8.72651,3.05853 1.59563,3.2023 1.97233,3.36298 7.15474,3.05211 4.20659,-0.25234 5.39334,-0.70665 5.13671,-1.96638 -0.18375,-0.90103 -3.93078,-11.099 -8.32713,-22.66216 l -7.99335,-21.023932 h -4.4751 -4.47511 l -8.50819,22.222212 c -4.6795,12.22222 -8.50819,22.54306 -8.50819,22.9352 0,0.39215 2.57878,0.71298 5.73059,0.71298 5.21474,0 5.85507,-0.27037 7.11346,-3.00342 z m 5.04618,-14.57596 c 0,-0.65841 0.78089,-3.97582 1.73536,-7.37203 l 1.7354,-6.17492 1.9668,5.98717 c 1.08171,3.29295 1.73636,6.61036 1.45475,7.37203 -0.62565,1.69196 -6.89231,1.86267 -6.89231,0.18773 z"
       id="path3338" />
    <g
       style="fill:#cccccc"
       id="g3338"
       transform="matrix(2.5897582,0,0,2.616601,-551.12293,-96.020728)">
      <path
         style="fill:#cccccc;fill-opacity:1"
         d="M 38.135229,0.21375135 A 38.201744,37.604843 0 0 0 -0.0659428,37.817267 38.201744,37.604843 0 0 0 38.135229,75.422736 38.201744,37.604843 0 0 0 76.336401,37.817267 38.201744,37.604843 0 0 0 38.135229,0.21375135 Z M 60.992651,19.635626 c 0.501794,0 -0.19828,0.874874 -1.556641,1.94336 -1.35836,1.068487 -5.789954,6.805987 -9.847656,12.75 -4.057702,5.944014 -11.088531,14.51914 -15.623047,19.05664 -8.727163,8.732907 -11.951963,10.357174 -10.880859,5.480469 0.827337,-3.766839 -0.971618,-5.87332 -6.949219,-8.136719 -2.75,-1.041278 -4.905389,-2.21425 -4.789062,-2.607421 0.116325,-0.393172 4.166324,-2.03826 8.999999,-3.654297 10.295924,-3.442225 19.787818,-8.822741 28.525391,-16.173829 7.241402,-6.092331 10.832337,-8.658203 12.121094,-8.658203 z"
         id="path3344-8" />
    </g>
    <path
       style="fill:#cccccc;fill-opacity:1;stroke-width:1.86687398"
       d="m 97.152516,198.90009 c -9.39568,-5.94912 -35.517863,-17.12912 -50.465704,-21.59866 l -13.91316,-4.1602 -4.182353,-11.8823 C 26.291005,154.7237 19.852857,138.98351 14.284336,126.28073 L 4.1596529,103.18482 13.850758,82.801989 C 19.180932,71.591457 25.775918,55.739039 28.5063,47.574488 L 33.470735,32.729819 50.736613,27.052248 C 60.232779,23.929584 76.509055,17.354845 86.906042,12.441679 L 105.80974,3.5086805 124.567,12.367457 c 10.31642,4.87229 25.68293,11.11837 34.14776,13.880058 8.46483,2.761756 16.36964,5.915984 17.56625,7.009389 1.19661,1.093405 4.55747,8.917456 7.46847,17.386769 2.91106,8.469317 9.44737,23.755963 14.52517,33.970318 l 9.23237,18.571589 -8.46774,17.06352 c -4.65723,9.3849 -11.2853,25.22061 -14.72913,35.19046 l -6.26153,18.12694 -15.6378,4.79026 c -8.60087,2.63461 -25.38416,9.21647 -37.29631,14.62639 -11.91214,5.40985 -21.77819,9.77655 -21.92449,9.7037 -0.14614,-0.0726 -2.86315,-1.77688 -6.037504,-3.78676 z m 28.204854,-11.49763 c 9.88175,-4.49371 24.81054,-10.42634 33.1751,-13.18357 l 15.2083,-5.01314 5.11051,-14.44357 c 2.81073,-7.94401 9.11807,-22.83332 14.01626,-33.08753 l 8.90583,-18.64389 -9.40477,-19.628559 C 182.83906,63.513107 175.06724,43.69413 175.06724,39.281894 c 0,-1.39399 -5.63069,-4.125688 -13.29628,-6.450534 -7.31294,-2.217895 -22.90405,-8.472945 -34.64692,-13.899982 L 105.77331,9.0639628 93.610531,15.359548 C 86.92102,18.822099 71.681607,25.132131 59.745177,29.381887 L 38.042603,37.10871 30.766385,56.104603 C 26.764428,66.552305 20.442473,81.312003 16.717546,88.903802 L 9.9449263,102.70717 22.385682,132.38254 c 6.842423,16.32151 13.15398,31.30586 14.025716,33.29863 1.090088,2.49212 6.68842,5.23853 17.933076,8.79756 8.991405,2.84591 23.600193,8.69856 32.463844,13.0059 8.863578,4.30734 17.120672,7.88923 18.348982,7.95982 1.22831,0.0705 10.31839,-3.54827 20.20007,-8.04199 z M 88.494347,180.19759 C 79.501052,175.95447 65.873866,170.5905 58.211696,168.27757 44.666965,164.18885 44.191942,163.84328 41.08477,155.81861 39.32712,151.27916 33.585765,137.55015 28.326267,125.30975 l -9.562698,-22.25529 6.776619,-13.977017 c 3.727108,-7.687315 9.516235,-21.374081 12.864735,-30.415057 l 6.088043,-16.438043 13.00885,-3.945404 c 7.154863,-2.169966 20.988985,-7.60296 30.74255,-12.073191 l 17.733774,-8.127855 16.74919,7.89348 c 9.21208,4.34137 22.37639,9.762519 29.25408,12.046967 6.87761,2.284448 13.23272,4.747879 14.12235,5.474213 0.88969,0.726403 4.11589,8.321623 7.1694,16.878308 3.05344,8.556685 8.67031,21.389144 12.48191,28.516508 l 6.93019,12.958921 -6.90794,14.23077 c -3.79938,7.82692 -9.41626,21.25973 -12.48198,29.85072 -3.06566,8.59099 -6.30189,16.21757 -7.19158,16.94802 -0.88963,0.73037 -8.54329,3.59107 -17.00812,6.35707 -8.46476,2.766 -21.88392,8.10046 -29.82021,11.85429 l -14.42962,6.8252 z m 20.426123,-13.1577 c 0.74871,-3.73643 1.72581,-5.77452 2.17131,-4.52904 1.39613,3.90309 4.33701,2.46802 4.33701,-2.11636 0,-2.40947 0.5257,-5.67038 1.16774,-7.24643 1.67287,-4.10522 6.52758,-3.5417 6.52758,0.75763 0,2.65706 1.28256,3.62325 4.80957,3.62325 6.05597,0 6.48533,-4.95781 0.49879,-5.76179 -5.57295,-0.74838 -8.60996,-6.95653 -10.51085,-21.48583 -1.37417,-10.50289 -2.00661,-11.76534 -6.17151,-12.31948 -3.54533,-0.47176 -3.99934,-0.99248 -1.92387,-2.20659 1.49414,-0.87403 2.71664,-3.85715 2.71664,-6.62904 0,-3.84729 1.02428,-5.17691 4.32865,-5.61882 9.2195,-1.23302 2.43197,-9.384975 -7.81421,-9.384975 -6.34043,0 -9.301377,3.843589 -10.467811,13.588095 -0.718387,6.00404 -0.307569,8.15128 1.561111,8.15128 1.5526,0 0.90329,1.43308 -1.673595,3.69377 -2.315709,2.03159 -4.21042,5.67168 -4.21042,8.08897 0,5.68571 -5.633816,21.38113 -8.228154,22.92322 -1.102158,0.65526 -3.164541,0.77173 -4.583138,0.25882 -2.540823,-0.91812 -3.786368,4.96151 -1.505924,7.10894 2.201044,2.07267 8.758075,-0.89607 7.702161,-3.4872 -0.762959,-1.87225 0.152694,-2.44179 3.257902,-2.02645 3.332795,0.44574 4.459383,1.95552 4.933461,6.6111 0.428269,4.20908 1.40769,5.74672 3.237906,5.0853 1.717661,-0.62103 3.053001,0.89292 3.867081,4.38348 1.70886,7.32634 4.3405,6.6821 5.97236,-1.46212 z m -8.55048,-15.11882 c -2.107027,-3.1771 -1.677667,-3.45023 5.42339,-3.45023 4.59295,0 7.71161,0.85472 7.71161,2.11355 0,1.16249 -0.58023,1.56722 -1.28931,0.89943 -0.70894,-0.66759 -3.14964,-0.0685 -5.42339,1.33675 -3.67956,2.27034 -4.38566,2.1714 -6.4223,-0.8995 z M 68.089742,133.50409 c 1.096269,-1.63658 1.395475,-3.53848 0.664582,-4.22648 -1.830216,-1.72347 -7.192746,2.73403 -7.192746,5.97891 0,3.27919 3.849699,2.24577 6.527874,-1.75243 z m 81.058028,2.20612 c 1.33447,-2.03337 -2.31665,-7.16715 -5.0972,-7.16715 -1.97121,0 -2.28546,6.08025 -0.40573,7.85035 1.86512,1.75633 4.08245,1.48108 5.50286,-0.68334 z m -87.702966,-5.74043 c 2.472474,-4.12904 2.408488,-4.9626 -0.598414,-7.7944 -2.75983,-2.5988 -4.223581,-2.80352 -8.113126,-1.13469 -4.89536,2.1004 -7.973738,6.77652 -5.805341,8.81844 0.677669,0.63815 2.256085,0.19514 3.508174,-0.98392 3.267063,-3.07658 6.273675,-2.65199 3.500757,0.49436 -2.612589,2.96436 -0.907727,6.98186 2.511085,5.91749 1.225694,-0.38138 3.474363,-2.77435 4.997155,-5.31721 z m 96.665946,1.3968 c -0.46753,-2.43207 0.2923,-2.87329 3.36668,-1.95449 3.28429,0.98166 3.97069,0.40877 3.97069,-3.31335 0,-2.47507 1.08216,-4.92454 2.40478,-5.44313 1.70566,-0.66896 1.31913,-1.76606 -1.3296,-3.77423 -3.66123,-2.77572 -3.65178,-2.83119 0.48062,-2.83119 4.95164,0 5.62524,-3.22749 1.02087,-4.89125 -2.73395,-0.98796 -2.59536,-1.36304 0.9619,-2.60222 4.89637,-1.70567 5.5491,-5.18787 0.97251,-5.18787 -2.9627,0 -2.9627,-0.23006 0,-3.312944 4.53798,-4.721928 3.94626,-6.318043 -1.8356,-4.951578 l -5.01948,1.186319 4.24961,-5.066061 4.24962,-5.066061 -4.03606,-0.578575 c -3.23674,-0.463545 -3.66916,-1.223841 -2.18352,-3.837906 2.1588,-3.798536 0.83138,-5.711121 -3.00232,-4.325758 -2.11358,0.763788 -2.4226,-0.330713 -1.44201,-5.106801 1.22075,-5.945427 1.16447,-6.009242 -2.56373,-2.908488 -5.30036,4.408265 -5.63134,4.127194 -4.80055,-4.076115 0.79256,-7.826379 -0.65222,-9.082401 -4.68755,-4.076184 -2.31876,2.876444 -2.56132,2.697462 -2.61688,-1.93073 -0.0363,-2.805508 -1.06282,-6.863479 -2.28713,-9.017628 -2.17545,-3.827837 -2.25958,-3.835438 -3.71242,-0.333451 -0.81757,1.970511 -1.54628,8.474178 -1.61935,14.452471 -0.11052,9.050631 0.66167,11.739534 4.61404,16.067278 2.92808,3.206129 5.87558,4.789646 7.69292,4.133014 3.28815,-1.188237 3.44928,-0.898059 1.7783,3.202569 -1.47952,3.630783 -6.29897,3.722807 -7.75567,0.147896 -0.60932,-1.494573 -2.25311,-2.717456 -3.65345,-2.717456 -1.40035,0 -2.82273,-1.662736 -3.16084,-3.695008 -0.3381,-2.032203 -1.48047,-3.625511 -2.53856,-3.540608 -3.02203,0.242386 -1.32546,16.863864 1.89449,18.560767 1.54053,0.811854 3.7439,4.77335 4.89623,8.803318 1.91442,6.69477 1.66233,7.86157 -2.92045,13.51949 -3.71874,4.59115 -7.00755,6.4923 -12.71873,7.35229 -6.44084,0.96988 -7.60793,1.78742 -7.12258,4.98951 1.20955,7.98003 14.84983,3.72329 27.13949,-8.46945 4.60015,-4.5639 5.28473,-6.53599 4.63694,-13.35763 -0.41809,-4.40176 0.0982,-8.502594 1.14681,-9.113009 1.08936,-0.634036 0.33883,-2.226111 -1.75118,-3.713427 -3.56838,-2.539843 -3.56373,-2.588114 0.18977,-1.969141 3.12346,0.514897 4.06064,2.506361 4.97942,10.579507 0.62241,5.46976 0.26612,11.98308 -0.79161,14.47404 -1.05788,2.49102 -1.78361,5.14049 -1.61274,5.88777 0.17087,0.74729 -0.98793,1.35873 -2.57507,1.35873 -3.69257,0 -3.64618,1.79468 0.1796,6.93798 3.44244,4.62805 7.83609,4.31583 6.91179,-0.49094 z m -66.729692,-1.99441 c 0,-2.42597 -1.918124,-3.76738 -6.705653,-4.6894 -3.900815,-0.75133 -8.99584,-3.70514 -12.18074,-7.06177 -6.037,-6.36248 -5.949383,-9.03365 0.750744,-22.883446 3.957166,-8.179824 4.9616,-18.731258 1.783171,-18.731258 -1.058094,0 -1.923795,1.222813 -1.923795,2.717387 0,1.494573 -1.298551,2.717455 -2.885693,2.717455 -1.587141,0 -2.885765,1.135583 -2.885765,2.523616 0,2.721838 -5.583354,5.503793 -7.47363,3.723766 -0.633315,-0.596378 0.374464,-1.888484 2.239654,-2.871377 1.865117,-0.982894 2.852899,-2.607081 2.195153,-3.609284 -0.658037,-1.002202 0.542426,-2.25035 2.667414,-2.773601 2.124842,-0.523114 4.364422,-2.710266 4.976796,-4.859965 1.948227,-6.838624 1.262414,-26.283957 -0.972804,-27.584827 -3.25383,-1.893688 -5.485703,2.846039 -5.604004,11.900641 l -0.106159,8.152299 -2.870132,-4.981979 c -4.106879,-7.128597 -5.314686,-6.178364 -4.181408,3.289731 l 0.99011,8.271643 -4.587501,-4.058381 -4.587573,-4.058381 v 4.844832 c 0,3.098768 -1.03999,4.844765 -2.885693,4.844765 -3.413214,0 -3.553983,0.874094 -0.894204,5.553981 1.681886,2.95943 1.348504,3.504113 -2.145128,3.504113 -3.970109,0 -4.00981,0.182131 -0.985238,4.529047 2.964512,4.260506 2.943207,4.529047 -0.359194,4.529047 -5.521041,0 -5.314177,12.390826 0.242129,14.501496 3.124694,1.18693 3.342974,1.60152 0.88875,1.68821 -5.168318,0.18213 -6.065721,3.62428 -1.371262,5.25962 3.631856,1.26513 3.796256,1.66568 1.085506,2.64522 -4.765134,1.7219 -3.856679,4.89126 1.401947,4.89126 4.3437,0 15.867784,-7.05814 11.73313,-7.18618 -2.76601,-0.0856 -0.542427,-20.433093 2.330033,-21.324441 1.692937,-0.525169 1.858718,0.75653 0.623135,4.814637 -3.249103,10.668314 -0.640586,18.504414 8.906988,26.759014 11.019904,9.52725 22.791861,12.11625 22.791861,5.01251 z m -2.081143,-7.36352 c 4.470217,-1.61535 3.713293,-4.18498 -1.815819,-6.16453 -6.459598,-2.31273 -7.920658,-6.56255 -3.748557,-10.90378 2.70166,-2.81119 3.040858,-4.72638 1.647419,-9.301578 -1.883222,-6.183362 -6.506714,-9.207086 -6.506714,-4.255302 0,1.648769 -1.298551,4.220588 -2.885693,5.715161 -1.764121,1.66123 -2.885766,6.099899 -2.885766,11.419849 0,8.01494 0.49371,8.93163 6.252444,11.60485 7.432693,3.45036 6.238337,3.22386 9.942686,1.88533 z m 41.557985,-1.63658 c 9.90488,-4.82326 12.39074,-13.66793 5.73293,-20.397485 -2.11619,-2.138948 -3.84767,-5.505504 -3.84767,-7.481082 0,-6.711611 -3.65025,-5.752272 -5.9805,1.571671 -1.99534,6.271416 -1.87362,7.758866 0.86803,10.611686 4.77393,4.96747 3.86787,8.79592 -2.58278,10.91344 -5.63563,1.85007 -7.07568,3.87433 -4.4889,6.31024 1.92365,1.81145 4.10498,1.48772 10.29889,-1.52847 z"
       id="path3338-8" />
    <path
       style="fill:#cccccc;fill-opacity:1;stroke-width:2.0915823"
       d="m 310.73131,134.54358 v -4.95374 h 55.19478 55.1947 v 4.95374 4.95375 h -55.1947 -55.19478 z m 0,-29.72238 V 84.015566 h 55.19478 55.1947 v 20.805634 20.8057 h -55.1947 -55.19478 z m 37.53244,-26.433174 c 0,-0.91547 1.98697,-8.63734 4.41561,-17.15964 2.42855,-8.5223 4.41552,-19.29478 4.41552,-23.93877 0,-7.64668 -1.37833,-9.79163 -14.6027,-22.72502 C 334.4607,6.7098762 325.56048,-4.2833058 322.71387,-9.8647868 317.08932,-20.893167 311.84262,-47.074778 309.46263,-75.989987 l -1.50859,-18.32876 h 56.91982 56.91991 l -1.4309,22.484838 c -3.0392,47.758771 -9.99726,67.5277612 -30.8994,87.790505 -10.50802,10.18653 -12.49849,13.28358 -12.49849,19.44711 0,6.44572 6.47425,32.86781 10.17399,41.52087 1.15804,2.70851 -1.35871,3.12798 -18.76889,3.12798 -11.0585,0 -20.10633,-0.74906 -20.10633,-1.66453 z M 419.1909,9.6154262 c -5.51673,-4.16627 -6.90124,-6.73368 -6.90124,-12.797385 0,-6.370157 1.38109,-8.6435502 8.62019,-14.1896822 7.89805,-6.050897 9.28523,-8.712974 16.55837,-31.777919 4.36604,-13.845557 7.93828,-26.497801 7.93828,-28.116047 0,-2.199325 -2.36922,-2.847582 -9.38311,-2.567115 -9.07287,0.362473 -9.40597,0.161765 -10.07495,-6.064676 l -0.69175,-6.439882 h 20.15874 c 18.24169,0 20.04141,0.331768 18.92485,3.489249 -0.6784,1.919083 -5.74821,18.073232 -11.26578,35.898125 -12.40461,40.074499 -14.9822,45.8167702 -20.56585,45.8167702 -5.55921,0 -7.6484,4.955612 -3.4177,8.10688199 3.68455,2.74446001 3.32023,11.99446981 -0.51652,13.12337981 -1.36498,0.40142 -5.58733,-1.61517 -9.38303,-4.4816998 z M 301.07617,11.281826 c -2.19316,-1.9684398 -1.6073,-10.1311098 0.82359,-11.47974981 4.22602,-2.34408999 2.37248,-8.61996099 -2.73905,-9.27420899 -2.72077,-0.348243 -6.12646,-2.8624102 -7.56811,-5.5869472 -4.08751,-7.724712 -24.83119,-75.945663 -23.62509,-77.69714 0.59162,-0.85945 9.46214,-1.562527 19.7119,-1.562527 h 18.63596 v 5.944477 c 0,5.712614 -0.38218,5.944476 -9.80476,5.944476 -5.39264,0 -10.21913,0.668777 -10.72563,1.486063 -0.50651,0.817361 2.93189,13.454102 7.64088,28.081672 7.7794,24.165544 9.3645,27.260716 17.34892,33.876367 9.14755,7.579273 11.1089,14.1642932 6.51406,21.8698382 -2.5725,4.31402 -14.10654,10.2882298 -16.21309,8.3976798 z"
       id="path3338-0" />
  </g>
</svg>
